<svg id="visual" viewBox="0 0 900 600" width="900" height="600" xmlns="http://www.w3.org/2000/svg" xmlns:xlink="http://www.w3.org/1999/xlink" version="1.1"><g stroke-width="1" stroke-linejoin="bevel"><path d="M395 296L310 217L313 290Z" fill="#ccced1" stroke="#ccced1"></path><path d="M395 296L399 184L310 217Z" fill="#d2d4d6" stroke="#d2d4d6"></path><path d="M395 296L491 211L399 184Z" fill="#ccced1" stroke="#ccced1"></path><path d="M491 211L411 114L399 184Z" fill="#d2d4d6" stroke="#d2d4d6"></path><path d="M399 184L286 117L310 217Z" fill="#c7c9cc" stroke="#c7c9cc"></path><path d="M411 114L286 117L399 184Z" fill="#eeefef" stroke="#eeefef"></path><path d="M203 283L290 390L313 290Z" fill="#f4f4f5" stroke="#f4f4f5"></path><path d="M395 296L505 289L491 211Z" fill="#e9e9ea" stroke="#e9e9ea"></path><path d="M203 283L313 290L310 217Z" fill="#d2d4d6" stroke="#d2d4d6"></path><path d="M313 290L290 390L395 296Z" fill="#e9e9ea" stroke="#e9e9ea"></path><path d="M395 296L512 388L505 289Z" fill="#ffffff" stroke="#ffffff"></path><path d="M209 195L203 283L310 217Z" fill="#ffffff" stroke="#ffffff"></path><path d="M286 117L209 195L310 217Z" fill="#e3e4e5" stroke="#e3e4e5"></path><path d="M290 390L403 409L395 296Z" fill="#e3e4e5" stroke="#e3e4e5"></path><path d="M403 409L512 388L395 296Z" fill="#ffffff" stroke="#ffffff"></path><path d="M605 209L509 104L491 211Z" fill="#f9fafa" stroke="#f9fafa"></path><path d="M491 211L509 104L411 114Z" fill="#e3e4e5" stroke="#e3e4e5"></path><path d="M283 0L205 102L286 117Z" fill="#d8d9db" stroke="#d8d9db"></path><path d="M605 209L491 211L505 289Z" fill="#ccced1" stroke="#ccced1"></path><path d="M383 0L286 117L411 114Z" fill="#e3e4e5" stroke="#e3e4e5"></path><path d="M286 117L205 102L209 195Z" fill="#d2d4d6" stroke="#d2d4d6"></path><path d="M209 195L107 215L203 283Z" fill="#ffffff" stroke="#ffffff"></path><path d="M203 283L186 416L290 390Z" fill="#e3e4e5" stroke="#e3e4e5"></path><path d="M290 390L399 492L403 409Z" fill="#eeefef" stroke="#eeefef"></path><path d="M104 407L186 416L203 283Z" fill="#dddfe0" stroke="#dddfe0"></path><path d="M290 507L399 492L290 390Z" fill="#ffffff" stroke="#ffffff"></path><path d="M403 409L496 514L512 388Z" fill="#c7c9cc" stroke="#c7c9cc"></path><path d="M609 401L599 309L512 388Z" fill="#f9fafa" stroke="#f9fafa"></path><path d="M512 388L599 309L505 289Z" fill="#e9e9ea" stroke="#e9e9ea"></path><path d="M599 309L605 209L505 289Z" fill="#f9fafa" stroke="#f9fafa"></path><path d="M205 102L107 215L209 195Z" fill="#c7c9cc" stroke="#c7c9cc"></path><path d="M487 0L383 0L411 114Z" fill="#f4f4f5" stroke="#f4f4f5"></path><path d="M383 0L283 0L286 117Z" fill="#f4f4f5" stroke="#f4f4f5"></path><path d="M205 102L86 96L107 215Z" fill="#f9fafa" stroke="#f9fafa"></path><path d="M212 502L290 507L290 390Z" fill="#ffffff" stroke="#ffffff"></path><path d="M107 215L86 289L203 283Z" fill="#e9e9ea" stroke="#e9e9ea"></path><path d="M605 209L591 106L509 104Z" fill="#c7c9cc" stroke="#c7c9cc"></path><path d="M509 104L487 0L411 114Z" fill="#f9fafa" stroke="#f9fafa"></path><path d="M603 0L487 0L509 104Z" fill="#f9fafa" stroke="#f9fafa"></path><path d="M283 0L216 0L205 102Z" fill="#d8d9db" stroke="#d8d9db"></path><path d="M114 482L212 502L186 416Z" fill="#e3e4e5" stroke="#e3e4e5"></path><path d="M186 416L212 502L290 390Z" fill="#ffffff" stroke="#ffffff"></path><path d="M597 482L609 401L512 388Z" fill="#f4f4f5" stroke="#f4f4f5"></path><path d="M599 309L688 312L605 209Z" fill="#e3e4e5" stroke="#e3e4e5"></path><path d="M399 492L496 514L403 409Z" fill="#eeefef" stroke="#eeefef"></path><path d="M413 600L496 514L399 492Z" fill="#e3e4e5" stroke="#e3e4e5"></path><path d="M86 289L104 407L203 283Z" fill="#c7c9cc" stroke="#c7c9cc"></path><path d="M100 0L86 96L205 102Z" fill="#e9e9ea" stroke="#e9e9ea"></path><path d="M0 190L0 313L86 289Z" fill="#e3e4e5" stroke="#e3e4e5"></path><path d="M496 514L597 482L512 388Z" fill="#ccced1" stroke="#ccced1"></path><path d="M0 406L114 482L104 407Z" fill="#ccced1" stroke="#ccced1"></path><path d="M104 407L114 482L186 416Z" fill="#c7c9cc" stroke="#c7c9cc"></path><path d="M609 401L688 312L599 309Z" fill="#e9e9ea" stroke="#e9e9ea"></path><path d="M605 209L693 193L591 106Z" fill="#f4f4f5" stroke="#f4f4f5"></path><path d="M714 410L688 312L609 401Z" fill="#c7c9cc" stroke="#c7c9cc"></path><path d="M688 312L693 193L605 209Z" fill="#eeefef" stroke="#eeefef"></path><path d="M591 106L603 0L509 104Z" fill="#d8d9db" stroke="#d8d9db"></path><path d="M701 108L603 0L591 106Z" fill="#f9fafa" stroke="#f9fafa"></path><path d="M283 600L290 507L212 502Z" fill="#e3e4e5" stroke="#e3e4e5"></path><path d="M283 600L413 600L290 507Z" fill="#e9e9ea" stroke="#e9e9ea"></path><path d="M290 507L413 600L399 492Z" fill="#c7c9cc" stroke="#c7c9cc"></path><path d="M496 514L611 600L597 482Z" fill="#c7c9cc" stroke="#c7c9cc"></path><path d="M199 600L283 600L212 502Z" fill="#d8d9db" stroke="#d8d9db"></path><path d="M216 0L100 0L205 102Z" fill="#d8d9db" stroke="#d8d9db"></path><path d="M0 190L86 289L107 215Z" fill="#dddfe0" stroke="#dddfe0"></path><path d="M86 289L0 313L104 407Z" fill="#c7c9cc" stroke="#c7c9cc"></path><path d="M0 190L107 215L86 96Z" fill="#f4f4f5" stroke="#f4f4f5"></path><path d="M0 93L0 190L86 96Z" fill="#ffffff" stroke="#ffffff"></path><path d="M413 600L488 600L496 514Z" fill="#f4f4f5" stroke="#f4f4f5"></path><path d="M693 193L701 108L591 106Z" fill="#ccced1" stroke="#ccced1"></path><path d="M789 89L701 108L693 193Z" fill="#e9e9ea" stroke="#e9e9ea"></path><path d="M114 482L199 600L212 502Z" fill="#c7c9cc" stroke="#c7c9cc"></path><path d="M0 313L0 406L104 407Z" fill="#dddfe0" stroke="#dddfe0"></path><path d="M114 482L89 600L199 600Z" fill="#e9e9ea" stroke="#e9e9ea"></path><path d="M703 500L609 401L597 482Z" fill="#eeefef" stroke="#eeefef"></path><path d="M703 500L714 410L609 401Z" fill="#ffffff" stroke="#ffffff"></path><path d="M688 312L795 290L693 193Z" fill="#f9fafa" stroke="#f9fafa"></path><path d="M0 0L0 93L86 96Z" fill="#dddfe0" stroke="#dddfe0"></path><path d="M701 108L694 0L603 0Z" fill="#e9e9ea" stroke="#e9e9ea"></path><path d="M611 600L703 500L597 482Z" fill="#dddfe0" stroke="#dddfe0"></path><path d="M488 600L611 600L496 514Z" fill="#ccced1" stroke="#ccced1"></path><path d="M100 0L0 0L86 96Z" fill="#ccced1" stroke="#ccced1"></path><path d="M0 517L89 600L114 482Z" fill="#eeefef" stroke="#eeefef"></path><path d="M786 400L688 312L714 410Z" fill="#d2d4d6" stroke="#d2d4d6"></path><path d="M786 400L795 290L688 312Z" fill="#f9fafa" stroke="#f9fafa"></path><path d="M701 108L789 89L694 0Z" fill="#ccced1" stroke="#ccced1"></path><path d="M0 406L0 517L114 482Z" fill="#f4f4f5" stroke="#f4f4f5"></path><path d="M797 513L786 400L714 410Z" fill="#e3e4e5" stroke="#e3e4e5"></path><path d="M900 296L816 217L795 290Z" fill="#f4f4f5" stroke="#f4f4f5"></path><path d="M795 290L816 217L693 193Z" fill="#e9e9ea" stroke="#e9e9ea"></path><path d="M816 217L789 89L693 193Z" fill="#d8d9db" stroke="#d8d9db"></path><path d="M703 500L797 513L714 410Z" fill="#e3e4e5" stroke="#e3e4e5"></path><path d="M611 600L683 600L703 500Z" fill="#e3e4e5" stroke="#e3e4e5"></path><path d="M0 517L0 600L89 600Z" fill="#ccced1" stroke="#ccced1"></path><path d="M900 103L802 0L789 89Z" fill="#ccced1" stroke="#ccced1"></path><path d="M789 89L802 0L694 0Z" fill="#c7c9cc" stroke="#c7c9cc"></path><path d="M683 600L797 513L703 500Z" fill="#ffffff" stroke="#ffffff"></path><path d="M786 400L900 296L795 290Z" fill="#ffffff" stroke="#ffffff"></path><path d="M900 412L900 296L786 400Z" fill="#f4f4f5" stroke="#f4f4f5"></path><path d="M816 217L900 103L789 89Z" fill="#eeefef" stroke="#eeefef"></path><path d="M900 296L900 192L816 217Z" fill="#e3e4e5" stroke="#e3e4e5"></path><path d="M900 192L900 103L816 217Z" fill="#e9e9ea" stroke="#e9e9ea"></path><path d="M797 513L900 412L786 400Z" fill="#eeefef" stroke="#eeefef"></path><path d="M683 600L810 600L797 513Z" fill="#c7c9cc" stroke="#c7c9cc"></path><path d="M797 513L900 510L900 412Z" fill="#f9fafa" stroke="#f9fafa"></path><path d="M900 103L900 0L802 0Z" fill="#e3e4e5" stroke="#e3e4e5"></path><path d="M810 600L900 510L797 513Z" fill="#ccced1" stroke="#ccced1"></path><path d="M810 600L900 600L900 510Z" fill="#d2d4d6" stroke="#d2d4d6"></path></g></svg>