<?xml version="1.0" standalone="no"?>
<!DOCTYPE svg PUBLIC "-//W3C//DTD SVG 20010904//EN"
 "http://www.w3.org/TR/2001/REC-SVG-20010904/DTD/svg10.dtd">
<svg version="1.0" xmlns="http://www.w3.org/2000/svg"
 width="700.000000pt" height="700.000000pt" viewBox="0 0 700.000000 700.000000"
 preserveAspectRatio="xMidYMid meet">
<metadata>
Created by potrace 1.14, written by Peter Selinger 2001-2017
</metadata>
<g transform="translate(0.000000,700.000000) scale(0.100000,-0.100000)"
fill="#000000" stroke="none">
<path d="M5460 6118 c-22 -8 -25 -19 -40 -133 -6 -44 -12 -89 -15 -100 -2 -11
-4 -31 -4 -45 -1 -19 -12 -31 -48 -50 -26 -14 -66 -37 -88 -52 l-42 -28 -119
49 c-65 26 -129 50 -141 53 -21 6 -63 -15 -63 -31 0 -5 -45 -86 -100 -180 -55
-95 -100 -180 -100 -189 0 -25 6 -31 120 -121 l105 -83 1 -104 0 -104 -105
-82 c-115 -89 -121 -95 -121 -120 0 -31 212 -389 236 -398 17 -7 55 4 155 44
l132 53 41 -27 c23 -16 59 -36 81 -46 50 -24 52 -26 61 -93 9 -66 8 -58 18
-143 13 -108 1 -103 248 -105 218 -2 267 5 269 36 0 9 2 23 3 31 2 8 9 56 15
105 20 148 17 142 71 169 27 14 66 36 86 50 34 23 39 23 68 11 118 -52 240
-95 254 -91 10 3 62 83 117 178 115 197 127 221 119 243 -3 8 -56 54 -118 102
l-111 88 1 100 1 100 104 82 c114 91 129 107 124 131 -4 20 -200 360 -222 384
-8 9 -22 15 -31 13 -17 -3 -153 -55 -207 -79 -53 -24 -59 -23 -110 8 -27 18
-67 40 -87 49 -21 10 -38 23 -38 30 0 7 -5 41 -10 77 -5 36 -12 83 -15 105
-11 76 -16 94 -32 107 -12 9 -69 13 -229 13 -118 0 -223 -3 -234 -7z m299
-659 c103 -21 180 -74 236 -164 77 -123 74 -275 -8 -395 -43 -62 -72 -87 -144
-121 -161 -78 -357 -26 -455 122 -48 73 -61 120 -61 209 0 155 101 294 248
339 70 22 116 24 184 10z"/>
<path d="M2617 5834 c-1 -1 -41 -4 -88 -8 -48 -3 -99 -10 -113 -16 -14 -5 -26
-8 -26 -5 0 2 -13 -1 -29 -6 l-28 -10 0 -197 c0 -240 -3 -261 -48 -301 -66
-57 -162 -50 -213 17 -26 34 -27 39 -29 195 -2 88 -4 162 -7 164 -2 2 -39 -22
-82 -53 -286 -205 -464 -515 -490 -854 -4 -47 -7 -86 -8 -87 -1 -1 -30 -5 -65
-7 -91 -8 -136 -47 -147 -129 -8 -57 16 -109 65 -139 l36 -23 1260 -1 c719 -1
1276 3 1297 8 102 24 143 142 80 227 -27 36 -68 55 -130 57 -29 1 -54 3 -56 5
-2 2 -6 40 -9 84 -16 200 -76 377 -185 544 -52 79 -67 96 -157 187 -69 70
-223 190 -231 181 -2 -1 -4 -71 -4 -153 -2 -135 -4 -155 -24 -190 -48 -86
-165 -97 -234 -22 -31 34 -37 89 -36 305 l1 183 -31 9 c-53 16 -259 43 -269
35z"/>
<path d="M1516 4082 c-20 -4 -18 -12 27 -127 61 -158 138 -275 262 -400 138
-139 275 -225 454 -285 141 -47 226 -59 391 -56 80 2 156 6 170 10 14 3 41 9
60 12 129 24 345 127 460 219 73 58 202 200 251 275 70 107 131 239 152 330
l6 25 -1108 0 c-609 0 -1115 -1 -1125 -3z"/>
<path d="M4940 4073 c-13 -9 -20 -34 -26 -85 -5 -40 -9 -77 -10 -83 -1 -5 -2
-17 -3 -27 -1 -9 -29 -31 -65 -52 l-65 -35 -87 35 c-47 19 -96 34 -107 32 -28
-4 -181 -268 -173 -296 4 -11 28 -34 54 -53 26 -18 58 -44 72 -56 14 -13 27
-23 30 -23 3 0 5 -34 4 -75 l-1 -74 -76 -58 c-42 -32 -79 -66 -83 -76 -7 -21
138 -282 165 -296 11 -6 46 4 109 29 l92 38 64 -36 c70 -40 64 -28 81 -169 8
-61 17 -81 38 -85 35 -6 315 -3 322 4 7 6 10 22 25 133 6 44 16 83 23 87 6 4
35 20 62 37 l51 29 94 -38 c61 -24 101 -35 111 -29 16 8 169 269 169 288 0 9
-88 87 -140 124 -19 13 -22 25 -23 88 l-2 73 83 64 c67 53 82 70 82 92 0 15
-7 33 -15 40 -8 7 -15 16 -15 20 0 5 -29 58 -65 119 -49 82 -69 109 -83 106
-9 -2 -57 -19 -106 -38 l-89 -35 -32 22 c-18 11 -47 29 -64 38 -17 10 -30 21
-29 25 2 8 -9 99 -18 152 -10 51 -21 55 -185 56 -105 0 -157 -4 -169 -12z
m268 -502 c84 -44 135 -125 135 -216 0 -165 -150 -276 -309 -230 -154 44 -218
229 -127 367 62 92 203 130 301 79z"/>
<path d="M2537 2624 c-1 -1 -51 -4 -112 -8 -60 -3 -121 -8 -135 -10 -14 -3
-50 -7 -80 -11 -128 -13 -394 -64 -555 -106 -671 -174 -1138 -449 -1296 -761
-62 -124 -68 -172 -66 -531 l2 -322 2320 -1 c1276 0 2325 2 2332 4 18 6 15
626 -4 707 -52 224 -240 428 -557 604 -60 33 -152 79 -205 101 -53 23 -105 45
-116 50 -37 16 -219 80 -285 99 -137 42 -373 99 -471 115 -19 3 -72 12 -119
20 -47 8 -114 18 -150 21 -35 4 -67 8 -70 10 -13 8 -424 27 -433 19z"/>
</g>
</svg>
