<?xml version="1.0" standalone="no"?>
<!DOCTYPE svg PUBLIC "-//W3C//DTD SVG 20010904//EN"
 "http://www.w3.org/TR/2001/REC-SVG-20010904/DTD/svg10.dtd">
<svg version="1.0" xmlns="http://www.w3.org/2000/svg"
 width="700.000000pt" height="700.000000pt" viewBox="0 0 700.000000 700.000000"
 preserveAspectRatio="xMidYMid meet">
<metadata>
Created by potrace 1.14, written by Peter Selinger 2001-2017
</metadata>
<g transform="translate(0.000000,700.000000) scale(0.100000,-0.100000)"
fill="#000000" stroke="none">
<path d="M4173 6071 c-45 -36 -56 -98 -24 -140 15 -20 28 -25 66 -25 39 -1 51
4 71 27 33 39 32 90 -2 122 -15 14 -34 25 -43 26 -9 0 -23 2 -32 4 -8 1 -25
-5 -36 -14z"/>
<path d="M3011 5984 c-195 -53 -316 -256 -277 -464 47 -247 379 -381 600 -242
169 106 225 350 121 528 -89 152 -273 226 -444 178z"/>
<path d="M4552 5970 c-32 -23 -43 -38 -50 -72 -15 -76 11 -126 81 -158 72 -33
141 -3 172 72 27 69 11 114 -59 162 -51 34 -93 34 -144 -4z"/>
<path d="M2133 5715 c-150 -46 -238 -163 -236 -313 3 -183 120 -305 309 -319
62 -5 79 -2 128 20 65 30 141 104 176 174 36 69 35 176 -1 253 -45 94 -109
150 -211 181 -69 22 -106 23 -165 4z"/>
<path d="M3967 5719 c-107 -24 -200 -115 -238 -233 -47 -148 29 -293 200 -381
35 -17 135 -24 194 -12 92 19 181 98 218 196 27 72 23 182 -10 256 -58 131
-217 207 -364 174z"/>
<path d="M5073 5689 c-74 -36 -113 -124 -107 -239 2 -50 8 -68 34 -100 45 -57
93 -83 158 -86 63 -3 141 22 180 58 88 81 82 261 -12 333 -74 56 -179 71 -253
34z"/>
<path d="M4630 5134 c-217 -66 -212 -384 6 -432 192 -43 333 133 256 318 -5
14 -25 39 -44 57 -61 58 -144 80 -218 57z"/>
<path d="M5563 5132 c-136 -49 -213 -148 -219 -284 -8 -192 128 -337 320 -339
62 -1 84 4 146 34 56 28 112 85 142 145 32 64 32 213 1 283 -61 136 -247 212
-390 161z"/>
<path d="M1491 5128 c-50 -14 -79 -36 -112 -85 -51 -74 -61 -151 -29 -218 39
-81 116 -128 210 -127 123 1 205 75 217 196 8 75 -12 133 -61 182 -58 59 -138
77 -225 52z"/>
<path d="M3049 5039 c-16 -6 -33 -25 -44 -49 -15 -34 -16 -44 -5 -70 22 -54
85 -74 140 -45 34 17 45 50 36 100 -10 52 -72 83 -127 64z"/>
<path d="M2655 4953 c-77 -16 -116 -59 -117 -127 -2 -75 52 -135 124 -138 43
-1 112 42 134 83 28 56 3 138 -51 166 -28 14 -66 21 -90 16z"/>
<path d="M2063 4691 c-56 -14 -111 -60 -140 -114 -25 -48 -26 -151 -2 -198 55
-109 183 -161 282 -114 94 44 147 124 147 219 -1 74 -53 157 -123 193 -35 18
-120 25 -164 14z"/>
<path d="M1114 4491 c-21 -12 -38 -36 -49 -65 -17 -45 -17 -46 9 -98 14 -29
38 -61 52 -71 72 -52 194 19 194 112 0 45 -23 94 -55 119 -36 28 -108 30 -151
3z"/>
<path d="M4995 4503 c-30 -8 -84 -71 -91 -108 -8 -43 26 -109 69 -135 85 -52
197 13 197 113 0 102 -72 155 -175 130z"/>
<path d="M5810 4312 c-140 -19 -238 -91 -303 -222 -30 -60 -32 -72 -32 -165 0
-94 2 -104 34 -168 83 -163 254 -247 434 -213 41 7 147 61 177 88 144 134 174
351 70 504 -53 76 -142 144 -215 163 -46 11 -128 18 -165 13z"/>
<path d="M1580 4140 c-94 -17 -186 -86 -232 -172 -17 -33 -23 -62 -24 -128 -2
-76 1 -92 27 -146 36 -76 89 -130 158 -162 48 -22 63 -24 140 -20 103 6 159
28 215 84 88 88 119 235 74 352 -50 133 -210 219 -358 192z"/>
<path d="M998 4036 c-52 -39 -52 -106 -1 -146 37 -29 79 -26 114 9 40 40 41
100 3 130 -30 24 -90 27 -116 7z"/>
<path d="M5109 4021 c-47 -48 -34 -113 29 -144 60 -30 139 32 121 95 -22 79
-96 103 -150 49z"/>
<path d="M5542 3299 c-134 -61 -206 -171 -201 -312 7 -215 221 -356 432 -285
88 30 169 111 193 193 76 265 -184 513 -424 404z"/>
<path d="M1353 3280 c-48 -11 -134 -56 -172 -90 -174 -154 -174 -385 -1 -574
65 -71 163 -106 284 -102 220 7 377 187 364 417 -10 163 -123 303 -280 345
-57 15 -143 17 -195 4z"/>
<path d="M2082 2945 c-33 -24 -51 -65 -41 -97 28 -102 159 -93 184 13 15 61
-90 122 -143 84z"/>
<path d="M6188 2933 c-40 -46 -39 -101 2 -138 28 -25 93 -25 120 0 26 23 40
74 27 101 -20 46 -120 70 -149 37z"/>
<path d="M2216 2575 c-58 -20 -89 -67 -88 -131 1 -55 24 -90 75 -115 77 -40
176 9 178 88 2 54 -9 101 -29 129 -27 37 -79 48 -136 29z"/>
<path d="M6068 2569 c-32 -16 -87 -70 -89 -87 0 -4 -2 -16 -4 -26 -2 -10 3
-37 12 -58 33 -84 135 -109 209 -53 39 30 54 60 54 108 0 90 -104 156 -182
116z"/>
<path d="M5125 2566 c-96 -31 -146 -77 -163 -151 -23 -103 14 -201 93 -250 43
-27 57 -30 125 -30 67 0 82 4 118 27 74 49 116 157 98 252 -9 47 -57 101 -116
131 -61 31 -106 37 -155 21z"/>
<path d="M1560 2311 c-100 -33 -168 -90 -206 -174 -50 -109 -37 -228 36 -336
55 -79 172 -132 279 -124 107 8 221 87 263 183 72 165 7 349 -153 431 -46 23
-174 35 -219 20z"/>
<path d="M2608 2135 c-2 -2 -20 -5 -41 -8 -137 -18 -220 -182 -157 -312 66
-136 226 -172 349 -78 62 48 88 156 61 254 -11 38 -58 92 -101 114 -27 14
-105 35 -111 30z"/>
<path d="M4562 2120 c-48 -29 -70 -72 -65 -123 10 -87 65 -131 150 -120 71 9
114 54 115 120 1 111 -109 178 -200 123z"/>
<path d="M5654 2116 c-91 -41 -141 -125 -130 -221 14 -135 102 -215 231 -210
62 3 96 16 133 52 50 49 74 100 79 166 6 80 -22 136 -92 187 -44 31 -57 35
-120 38 -44 1 -81 -3 -101 -12z"/>
<path d="M4184 1960 c-32 -13 -54 -50 -54 -90 0 -41 7 -53 37 -69 23 -12 62
-9 107 9 25 9 42 56 34 95 -7 39 -83 72 -124 55z"/>
<path d="M3173 1736 c-88 -29 -166 -99 -207 -186 -31 -66 -29 -196 4 -265 31
-63 95 -128 156 -157 69 -32 201 -32 262 0 219 116 260 375 82 535 -79 71
-206 103 -297 73z"/>
<path d="M5010 1733 c-60 -21 -139 -72 -174 -114 -76 -90 -92 -220 -41 -324
61 -125 158 -189 285 -189 104 0 171 24 231 84 66 66 92 126 95 225 2 70 -1
87 -25 140 -35 75 -83 123 -156 159 -69 34 -151 41 -215 19z"/>
<path d="M4100 1606 c-131 -31 -240 -129 -285 -256 -35 -97 -5 -288 57 -359
53 -61 103 -102 156 -128 51 -25 67 -28 152 -27 129 1 213 35 293 119 142 149
135 414 -14 551 -95 87 -240 127 -359 100z"/>
<path d="M2057 1553 c-125 -37 -191 -183 -136 -303 40 -89 101 -130 189 -126
118 5 173 35 214 118 90 180 -72 369 -267 311z"/>
<path d="M2600 1076 c-19 -13 -42 -37 -51 -52 -43 -77 26 -194 114 -194 56 0
84 16 111 62 46 78 37 140 -27 181 -52 34 -101 35 -147 3z"/>
<path d="M3045 920 c-67 -25 -67 -141 0 -172 33 -15 92 -2 110 25 31 48 22
115 -18 135 -31 16 -68 21 -92 12z"/>
</g>
</svg>
